General
Unique ID                                : 238072918507803050038642502304949775328 (0xB31B2D200AF390F7A341177284FEABE0)
Complete name                            : Edward.Scissorhands.1990.4K.Remastered.BluRay.1080p.DTS-HD.MA.4.0.AVC.REMUX-FraMeSToR.mkv
Format                                   : Matroska
Format version                           : Version 4
File size                                : 25.0 GiB
Duration                                 : 1 h 45 min
Overall bit rate mode                    : Variable
Overall bit rate                         : 34.1 Mb/s
Movie name                               : Edward Scissorhands (1990)
Encoded date                             : UTC 2017-12-19 01:48:48
Writing application                      : mkvmerge v18.0.0 ('Apricity') 64-bit
Writing library                          : libebml v1.3.5 + libmatroska v1.4.8

Video
ID                                       : 1
Format                                   : AVC
Format/Info                              : Advanced Video Codec
Format profile                           : High@L4.1
Format settings                          : CABAC / 4 Ref Frames
Format settings, CABAC                   : Yes
Format settings, Reference frames        : 4 frames
Format settings, GOP                     : M=3, N=12
Codec ID                                 : V_MPEG4/ISO/AVC
Duration                                 : 1 h 45 min
Bit rate mode                            : Variable
Bit rate                                 : 29.9 Mb/s
Maximum bit rate                         : 31.0 Mb/s
Width                                    : 1 920 pixels
Height                                   : 1 080 pixels
Display aspect ratio                     : 16:9
Frame rate mode                          : Constant
Frame rate                               : 23.976 (24000/1001) FPS
Color space                              : YUV
Chroma subsampling                       : 4:2:0
Bit depth                                : 8 bits
Scan type                                : Progressive
Bits/(Pixel*Frame)                       : 0.601
Stream size                              : 21.9 GiB (88%)
Default                                  : Yes
Forced                                   : No

Audio #1
ID                                       : 2
Format                                   : DTS XLL
Format/Info                              : Digital Theater Systems
Commercial name                          : DTS-HD Master Audio
Codec ID                                 : A_DTS
Duration                                 : 1 h 45 min
Bit rate mode                            : Variable
Bit rate                                 : 3 013 kb/s
Channel(s)                               : 4 channels
Channel layout                           : C L R Cb
Sampling rate                            : 48.0 kHz
Frame rate                               : 93.750 FPS (512 SPF)
Bit depth                                : 24 bits
Compression mode                         : Lossless
Stream size                              : 2.21 GiB (9%)
Title                                    : DTS-HD MA 4.0
Language                                 : English
Default                                  : Yes
Forced                                   : No

Audio #2
ID                                       : 3
Format                                   : AC-3
Format/Info                              : Audio Coding 3
Commercial name                          : Dolby Digital
Codec ID                                 : A_AC3
Duration                                 : 1 h 45 min
Bit rate mode                            : Constant
Bit rate                                 : 224 kb/s
Channel(s)                               : 2 channels
Channel layout                           : L R
Sampling rate                            : 48.0 kHz
Frame rate                               : 31.250 FPS (1536 SPF)
Compression mode                         : Lossy
Stream size                              : 168 MiB (1%)
Title                                    : Commentary by Tim Burton
Language                                 : English
Service kind                             : Complete Main
Default                                  : No
Forced                                   : No

Audio #3
ID                                       : 4
Format                                   : AC-3
Format/Info                              : Audio Coding 3
Commercial name                          : Dolby Digital
Codec ID                                 : A_AC3
Duration                                 : 1 h 45 min
Bit rate mode                            : Constant
Bit rate                                 : 224 kb/s
Channel(s)                               : 2 channels
Channel layout                           : L R
Sampling rate                            : 48.0 kHz
Frame rate                               : 31.250 FPS (1536 SPF)
Compression mode                         : Lossy
Stream size                              : 168 MiB (1%)
Title                                    : Commentary by Danny Elfman
Language                                 : English
Service kind                             : Complete Main
Default                                  : No
Forced                                   : No

Text #1
ID                                       : 5
Format                                   : PGS
Codec ID                                 : S_HDMV/PGS
Codec ID/Info                            : Picture based subtitle format used on BDs/HD-DVDs
Duration                                 : 1 h 41 min
Bit rate                                 : 27.2 kb/s
Count of elements                        : 1822
Stream size                              : 19.8 MiB (0%)
Title                                    : English
Language                                 : English
Default                                  : No
Forced                                   : No

Text #2
ID                                       : 6
Format                                   : PGS
Codec ID                                 : S_HDMV/PGS
Codec ID/Info                            : Picture based subtitle format used on BDs/HD-DVDs
Duration                                 : 1 h 36 min
Bit rate                                 : 53.1 kb/s
Count of elements                        : 2068
Stream size                              : 36.5 MiB (0%)
Title                                    : English (SDH)
Language                                 : English
Default                                  : No
Forced                                   : No

Text #3
ID                                       : 7
Format                                   : PGS
Codec ID                                 : S_HDMV/PGS
Codec ID/Info                            : Picture based subtitle format used on BDs/HD-DVDs
Duration                                 : 1 h 44 min
Bit rate                                 : 16.3 kb/s
Count of elements                        : 1694
Stream size                              : 12.2 MiB (0%)
Title                                    : Chinese (Mandarin Traditional)
Language                                 : Chinese
Default                                  : No
Forced                                   : No

Text #4
ID                                       : 8
Format                                   : PGS
Codec ID                                 : S_HDMV/PGS
Codec ID/Info                            : Picture based subtitle format used on BDs/HD-DVDs
Duration                                 : 1 h 41 min
Bit rate                                 : 23.3 kb/s
Count of elements                        : 2060
Stream size                              : 17.0 MiB (0%)
Title                                    : Chinese (Mandarin Simplified)
Language                                 : Chinese
Default                                  : No
Forced                                   : No

Text #5
ID                                       : 9
Format                                   : PGS
Codec ID                                 : S_HDMV/PGS
Codec ID/Info                            : Picture based subtitle format used on BDs/HD-DVDs
Duration                                 : 1 h 36 min
Bit rate                                 : 53.4 kb/s
Count of elements                        : 2058
Stream size                              : 36.7 MiB (0%)
Title                                    : Chinese (Cantonese)
Language                                 : Chinese
Default                                  : No
Forced                                   : No

Text #6
ID                                       : 10
Format                                   : PGS
Codec ID                                 : S_HDMV/PGS
Codec ID/Info                            : Picture based subtitle format used on BDs/HD-DVDs
Duration                                 : 1 h 41 min
Bit rate                                 : 26.7 kb/s
Count of elements                        : 1880
Stream size                              : 19.5 MiB (0%)
Title                                    : Spanish (Latin American)
Language                                 : Spanish
Default                                  : No
Forced                                   : No

Text #7
ID                                       : 11
Format                                   : PGS
Codec ID                                 : S_HDMV/PGS
Codec ID/Info                            : Picture based subtitle format used on BDs/HD-DVDs
Duration                                 : 1 h 36 min
Bit rate                                 : 26.2 kb/s
Count of elements                        : 1454
Stream size                              : 18.0 MiB (0%)
Title                                    : Spanish (Castilian)
Language                                 : Spanish
Default                                  : No
Forced                                   : No

Text #8
ID                                       : 12
Format                                   : PGS
Codec ID                                 : S_HDMV/PGS
Codec ID/Info                            : Picture based subtitle format used on BDs/HD-DVDs
Duration                                 : 1 h 44 min
Bit rate                                 : 25.3 kb/s
Count of elements                        : 1778
Stream size                              : 18.9 MiB (0%)
Title                                    : Portuguese (Brazilian)
Language                                 : Portuguese
Default                                  : No
Forced                                   : No

Text #9
ID                                       : 13
Format                                   : PGS
Codec ID                                 : S_HDMV/PGS
Codec ID/Info                            : Picture based subtitle format used on BDs/HD-DVDs
Duration                                 : 1 h 41 min
Bit rate                                 : 25.4 kb/s
Count of elements                        : 1770
Stream size                              : 18.5 MiB (0%)
Title                                    : Portuguese (Iberian)
Language                                 : Portuguese
Default                                  : No
Forced                                   : No

Text #10
ID                                       : 14
Format                                   : PGS
Codec ID                                 : S_HDMV/PGS
Codec ID/Info                            : Picture based subtitle format used on BDs/HD-DVDs
Duration                                 : 1 h 41 min
Bit rate                                 : 24.9 kb/s
Count of elements                        : 1760
Stream size                              : 18.2 MiB (0%)
Title                                    : Czech
Language                                 : Czech
Default                                  : No
Forced                                   : No

Text #11
ID                                       : 15
Format                                   : PGS
Codec ID                                 : S_HDMV/PGS
Codec ID/Info                            : Picture based subtitle format used on BDs/HD-DVDs
Duration                                 : 1 h 36 min
Bit rate                                 : 19.5 kb/s
Count of elements                        : 1406
Stream size                              : 13.4 MiB (0%)
Title                                    : Danish
Language                                 : Danish
Default                                  : No
Forced                                   : No

Text #12
ID                                       : 16
Format                                   : PGS
Codec ID                                 : S_HDMV/PGS
Codec ID/Info                            : Picture based subtitle format used on BDs/HD-DVDs
Duration                                 : 1 h 36 min
Bit rate                                 : 23.9 kb/s
Count of elements                        : 1420
Stream size                              : 16.4 MiB (0%)
Title                                    : Dutch
Language                                 : Dutch
Default                                  : No
Forced                                   : No

Text #13
ID                                       : 17
Format                                   : PGS
Codec ID                                 : S_HDMV/PGS
Codec ID/Info                            : Picture based subtitle format used on BDs/HD-DVDs
Duration                                 : 1 h 36 min
Bit rate                                 : 20.9 kb/s
Count of elements                        : 1408
Stream size                              : 14.4 MiB (0%)
Title                                    : Finnish
Language                                 : Finnish
Default                                  : No
Forced                                   : No

Text #14
ID                                       : 18
Format                                   : PGS
Codec ID                                 : S_HDMV/PGS
Codec ID/Info                            : Picture based subtitle format used on BDs/HD-DVDs
Duration                                 : 1 h 44 min
Bit rate                                 : 20.6 kb/s
Count of elements                        : 1444
Stream size                              : 15.4 MiB (0%)
Title                                    : French
Language                                 : French
Default                                  : No
Forced                                   : No

Text #15
ID                                       : 19
Format                                   : PGS
Codec ID                                 : S_HDMV/PGS
Codec ID/Info                            : Picture based subtitle format used on BDs/HD-DVDs
Duration                                 : 1 h 36 min
Bit rate                                 : 26.6 kb/s
Count of elements                        : 1468
Stream size                              : 18.3 MiB (0%)
Title                                    : German
Language                                 : German
Default                                  : No
Forced                                   : No

Text #16
ID                                       : 20
Format                                   : PGS
Codec ID                                 : S_HDMV/PGS
Codec ID/Info                            : Picture based subtitle format used on BDs/HD-DVDs
Duration                                 : 1 h 41 min
Bit rate                                 : 23.1 kb/s
Count of elements                        : 1724
Stream size                              : 16.8 MiB (0%)
Title                                    : Modern Greek
Language                                 : Greek
Default                                  : No
Forced                                   : No

Text #17
ID                                       : 21
Format                                   : PGS
Codec ID                                 : S_HDMV/PGS
Codec ID/Info                            : Picture based subtitle format used on BDs/HD-DVDs
Duration                                 : 1 h 44 min
Bit rate                                 : 15.9 kb/s
Count of elements                        : 1574
Stream size                              : 11.9 MiB (0%)
Title                                    : Hebrew
Language                                 : Hebrew
Default                                  : No
Forced                                   : No

Text #18
ID                                       : 22
Format                                   : PGS
Codec ID                                 : S_HDMV/PGS
Codec ID/Info                            : Picture based subtitle format used on BDs/HD-DVDs
Duration                                 : 1 h 41 min
Bit rate                                 : 24.4 kb/s
Count of elements                        : 1764
Stream size                              : 17.8 MiB (0%)
Title                                    : Hungarian
Language                                 : Hungarian
Default                                  : No
Forced                                   : No

Text #19
ID                                       : 23
Format                                   : PGS
Codec ID                                 : S_HDMV/PGS
Codec ID/Info                            : Picture based subtitle format used on BDs/HD-DVDs
Duration                                 : 1 h 41 min
Bit rate                                 : 27.3 kb/s
Count of elements                        : 1778
Stream size                              : 19.9 MiB (0%)
Title                                    : Icelandic
Language                                 : Icelandic
Default                                  : No
Forced                                   : No

Text #20
ID                                       : 24
Format                                   : PGS
Codec ID                                 : S_HDMV/PGS
Codec ID/Info                            : Picture based subtitle format used on BDs/HD-DVDs
Duration                                 : 1 h 36 min
Bit rate                                 : 24.7 kb/s
Count of elements                        : 1452
Stream size                              : 17.0 MiB (0%)
Title                                    : Italian
Language                                 : Italian
Default                                  : No
Forced                                   : No

Text #21
ID                                       : 25
Format                                   : PGS
Codec ID                                 : S_HDMV/PGS
Codec ID/Info                            : Picture based subtitle format used on BDs/HD-DVDs
Duration                                 : 1 h 41 min
Bit rate                                 : 15.6 kb/s
Count of elements                        : 1712
Stream size                              : 11.4 MiB (0%)
Title                                    : Japanese
Language                                 : Japanese
Default                                  : No
Forced                                   : No

Text #22
ID                                       : 26
Format                                   : PGS
Codec ID                                 : S_HDMV/PGS
Codec ID/Info                            : Picture based subtitle format used on BDs/HD-DVDs
Duration                                 : 1 h 44 min
Bit rate                                 : 14.5 kb/s
Count of elements                        : 1650
Stream size                              : 10.9 MiB (0%)
Title                                    : Korean
Language                                 : Korean
Default                                  : No
Forced                                   : No

Text #23
ID                                       : 27
Format                                   : PGS
Codec ID                                 : S_HDMV/PGS
Codec ID/Info                            : Picture based subtitle format used on BDs/HD-DVDs
Duration                                 : 1 h 36 min
Bit rate                                 : 19.4 kb/s
Count of elements                        : 1402
Stream size                              : 13.3 MiB (0%)
Title                                    : Norwegian
Language                                 : Norwegian
Default                                  : No
Forced                                   : No

Text #24
ID                                       : 28
Format                                   : PGS
Codec ID                                 : S_HDMV/PGS
Codec ID/Info                            : Picture based subtitle format used on BDs/HD-DVDs
Duration                                 : 1 h 41 min
Bit rate                                 : 26.4 kb/s
Count of elements                        : 1764
Stream size                              : 19.2 MiB (0%)
Title                                    : Polish
Language                                 : Polish
Default                                  : No
Forced                                   : No

Text #25
ID                                       : 29
Format                                   : PGS
Codec ID                                 : S_HDMV/PGS
Codec ID/Info                            : Picture based subtitle format used on BDs/HD-DVDs
Duration                                 : 1 h 44 min
Bit rate                                 : 25.9 kb/s
Count of elements                        : 1960
Stream size                              : 19.4 MiB (0%)
Title                                    : Russian
Language                                 : Russian
Default                                  : No
Forced                                   : No

Text #26
ID                                       : 30
Format                                   : PGS
Codec ID                                 : S_HDMV/PGS
Codec ID/Info                            : Picture based subtitle format used on BDs/HD-DVDs
Duration                                 : 1 h 36 min
Bit rate                                 : 15.9 kb/s
Count of elements                        : 1364
Stream size                              : 10.9 MiB (0%)
Title                                    : Swedish
Language                                 : Swedish
Default                                  : No
Forced                                   : No

Text #27
ID                                       : 31
Format                                   : PGS
Codec ID                                 : S_HDMV/PGS
Codec ID/Info                            : Picture based subtitle format used on BDs/HD-DVDs
Duration                                 : 1 h 41 min
Bit rate                                 : 15.0 kb/s
Count of elements                        : 1832
Stream size                              : 10.9 MiB (0%)
Title                                    : Thai
Language                                 : Thai
Default                                  : No
Forced                                   : No

Text #28
ID                                       : 32
Format                                   : PGS
Codec ID                                 : S_HDMV/PGS
Codec ID/Info                            : Picture based subtitle format used on BDs/HD-DVDs
Duration                                 : 1 h 39 min
Bit rate                                 : 15.1 kb/s
Count of elements                        : 896
Stream size                              : 10.8 MiB (0%)
Title                                    : English (Commentary #1)
Language                                 : English
Default                                  : No
Forced                                   : No

Text #29
ID                                       : 33
Format                                   : PGS
Codec ID                                 : S_HDMV/PGS
Codec ID/Info                            : Picture based subtitle format used on BDs/HD-DVDs
Duration                                 : 1 h 38 min
Bit rate                                 : 21.1 kb/s
Count of elements                        : 1177
Stream size                              : 14.8 MiB (0%)
Title                                    : English (Commentary #2)
Language                                 : English
Default                                  : No
Forced                                   : No

Text #30
ID                                       : 34
Format                                   : PGS
Codec ID                                 : S_HDMV/PGS
Codec ID/Info                            : Picture based subtitle format used on BDs/HD-DVDs
Duration                                 : 1 h 44 min
Bit rate                                 : 12.4 kb/s
Count of elements                        : 886
Stream size                              : 9.27 MiB (0%)
Title                                    : Chinese (Commentary #1)
Language                                 : Chinese
Default                                  : No
Forced                                   : No

Text #31
ID                                       : 35
Format                                   : PGS
Codec ID                                 : S_HDMV/PGS
Codec ID/Info                            : Picture based subtitle format used on BDs/HD-DVDs
Duration                                 : 1 h 42 min
Bit rate                                 : 17.9 kb/s
Count of elements                        : 1220
Stream size                              : 13.1 MiB (0%)
Title                                    : Chinese (Commentary #2)
Language                                 : Chinese
Default                                  : No
Forced                                   : No

Text #32
ID                                       : 36
Format                                   : PGS
Codec ID                                 : S_HDMV/PGS
Codec ID/Info                            : Picture based subtitle format used on BDs/HD-DVDs
Duration                                 : 1 h 44 min
Bit rate                                 : 17.9 kb/s
Count of elements                        : 904
Stream size                              : 13.4 MiB (0%)
Title                                    : French (Commentary #1)
Language                                 : French
Default                                  : No
Forced                                   : No

Text #33
ID                                       : 37
Format                                   : PGS
Codec ID                                 : S_HDMV/PGS
Codec ID/Info                            : Picture based subtitle format used on BDs/HD-DVDs
Duration                                 : 1 h 42 min
Bit rate                                 : 22.4 kb/s
Count of elements                        : 1142
Stream size                              : 16.3 MiB (0%)
Title                                    : French (Commentary #2)
Language                                 : French
Default                                  : No
Forced                                   : No

Text #34
ID                                       : 38
Format                                   : PGS
Codec ID                                 : S_HDMV/PGS
Codec ID/Info                            : Picture based subtitle format used on BDs/HD-DVDs
Duration                                 : 1 h 39 min
Bit rate                                 : 18.3 kb/s
Count of elements                        : 904
Stream size                              : 13.1 MiB (0%)
Title                                    : German (Commentary #1)
Language                                 : German
Default                                  : No
Forced                                   : No

Text #35
ID                                       : 39
Format                                   : PGS
Codec ID                                 : S_HDMV/PGS
Codec ID/Info                            : Picture based subtitle format used on BDs/HD-DVDs
Duration                                 : 1 h 35 min
Bit rate                                 : 25.7 kb/s
Count of elements                        : 1142
Stream size                              : 17.6 MiB (0%)
Title                                    : German (Commentary #2)
Language                                 : German
Default                                  : No
Forced                                   : No

Text #36
ID                                       : 40
Format                                   : PGS
Codec ID                                 : S_HDMV/PGS
Codec ID/Info                            : Picture based subtitle format used on BDs/HD-DVDs
Duration                                 : 1 h 39 min
Bit rate                                 : 12.5 kb/s
Count of elements                        : 992
Stream size                              : 8.93 MiB (0%)
Title                                    : Japanese (Commentary #1)
Language                                 : Japanese
Default                                  : No
Forced                                   : No

Text #37
ID                                       : 41
Format                                   : PGS
Codec ID                                 : S_HDMV/PGS
Codec ID/Info                            : Picture based subtitle format used on BDs/HD-DVDs
Duration                                 : 1 h 35 min
Bit rate                                 : 16.4 kb/s
Count of elements                        : 1074
Stream size                              : 11.2 MiB (0%)
Title                                    : Japanese (Commentary #2)
Language                                 : Japanese
Default                                  : No
Forced                                   : No

Menu
00:00:00.000                             : en:Main Titles
00:02:44.956                             : en:A Story About Snow
00:05:18.109                             : en:Avon Calling
00:12:24.619                             : en:Peg Meets Edward
00:16:35.620                             : en:Local Gossip
00:28:31.501                             : en:Edward's Talent
00:31:26.301                             : en:The Neighbors
00:33:28.256                             : en:The Inventor
00:35:28.668                             : en:Backyard Barbecue
00:38:14.876                             : en:Remembering
00:39:47.677                             : en:Kim
00:45:03.409                             : en:Show and Tell
00:47:37.855                             : en:More Talents
00:54:37.566                             : en:Edward on TV
00:56:56.538                             : en:A Beauty Salon
01:01:17.799                             : en:The Need for Money
01:04:39.042                             : en:Drop Your Weapons
01:09:21.449                             : en:A Ruined Reputation
01:15:50.337                             : en:The Ice Angel
01:19:04.156                             : en:Edward Gets Mad
01:24:56.633                             : en:A Christmas Past
01:27:05.554                             : en:Jim's Revenge
01:37:03.359                             : en:The Story's End
01:39:45.813                             : en:End Titles
